# xmcd
#
# Track frame offsets: 
#        150
#        11725
#        23325
#        32405
#        41745
#        56205
#        70935
#        86060
#        92635
#        99470
#        112735
#        121155
#        134640
#        145775
#        156990
#        168215
#        177550
#        188410
#        197880
#        210130
#        219180
#        228665
#        237200
#        249320
#        262495
#        270760
#        281680
#
# Disc length: 3910 seconds
#
# Revision: 0
# Processed by: cddbd v1.5.2PL0 Copyright (c) Steve Scherf et al.
# Submitted via: ExactAudioCopy v0.95b4
#
DISCID=730f441b
DTITLE=The Beatles  - Please Me Do - Disc 2  FLAC
DYEAR=1900
DGENRE=
TTITLE0=Besamo Mucho
TTITLE1=Love Me Do
TTITLE2=How Do You Do
TTITLE3=Please Please Me
TTITLE4=I Saw Her Standing There
TTITLE5=One After 909
TTITLE6=One After 909
TTITLE7=Catswalk
TTITLE8=Catswalk
TTITLE9=I Saw Her Standing There
TTITLE10=Misery
TTITLE11=Anna (Go To Him)
TTITLE12=Chains
TTITLE13=Boys
TTITLE14=Ask Me Why
TTITLE15=Please Please Me
TTITLE16=Love Me Do
TTITLE17=P.S. I Love You
TTITLE18=Baby It´s You
TTITLE19=Do You Want To Know A Secret?
TTITLE20=A Taste Of Honey
TTITLE21=There´s A Place
TTITLE22=Twist And Shout
TTITLE23=I Saw Her Standing There
TTITLE24=Misery
TTITLE25=Boys
TTITLE26=Twist And Shout
EXTD=
EXTT0=
EXTT1=
EXTT2=
EXTT3=
EXTT4=
EXTT5=
EXTT6=
EXTT7=
EXTT8=
EXTT9=
EXTT10=
EXTT11=
EXTT12=
EXTT13=
EXTT14=
EXTT15=
EXTT16=
EXTT17=
EXTT18=
EXTT19=
EXTT20=
EXTT21=
EXTT22=
EXTT23=
EXTT24=
EXTT25=
EXTT26=
PLAYORDER=
